<svg width="18" height="18" viewBox="0 0 18 18" fill="none" xmlns="http://www.w3.org/2000/svg">
<path d="M9 0.25C4.17 0.25 0.25 4.17 0.25 9C0.25 13.83 4.17 17.75 9 17.75C13.83 17.75 17.75 13.83 17.75 9C17.75 4.17 13.83 0.25 9 0.25ZM13.49 12.43C13.78 12.72 13.78 13.2 13.49 13.49C13.34 13.64 13.15 13.71 12.96 13.71C12.77 13.71 12.58 13.64 12.43 13.49L9 10.06L5.57 13.49C5.42 13.64 5.23 13.71 5.04 13.71C4.85 13.71 4.66 13.64 4.51 13.49C4.22 13.2 4.22 12.72 4.51 12.43L7.94 9L4.51 5.57C4.22 5.28 4.22 4.8 4.51 4.51C4.8 4.22 5.28 4.22 5.57 4.51L9 7.94L12.43 4.51C12.72 4.22 13.2 4.22 13.49 4.51C13.78 4.8 13.78 5.28 13.49 5.57L10.06 9L13.49 12.43Z" fill="#959CA6"/>
</svg>
