<svg width="18" height="22" viewBox="0 0 18 22" fill="none" xmlns="http://www.w3.org/2000/svg">
<path d="M14.12 2C14.52 2 14.9 2.16 15.18 2.44C15.46 2.72 15.62 3.1 15.62 3.5V19.83L9.55 17.35C9.37 17.28 9.17 17.24 8.98 17.24C8.79 17.24 8.59 17.28 8.41 17.35L2.37 19.83V3.51C2.37 2.68 3.04 2.01 3.87 2.01H14.12V2ZM14.12 0.5H3.88C2.22 0.5 0.880005 1.84 0.880005 3.5V20.31C0.880005 21 1.45 21.49 2.06 21.49C2.26 21.49 2.47 21.44 2.66 21.32L8.98 18.73L15.33 21.33C15.52 21.45 15.73 21.5 15.93 21.5C16.55 21.5 17.11 21.01 17.11 20.32V3.5C17.12 1.84 15.78 0.5 14.12 0.5Z" fill="#959CA6"/>
</svg>
